<?xml version="1.0" encoding="utf-8"?>
<!-- Uploaded to: SVG Repo, www.svgrepo.com, Generator: SVG Repo Mixer Tools -->
<svg xmlns="http://www.w3.org/2000/svg" xmlns:xlink="http://www.w3.org/1999/xlink" version="1.1" id="nocloud"  viewBox="0 0 224 224" enable-background="new 0 0 224 224" xml:space="preserve" width="512" height="512">
<g>
	<path fill="#FFFFFF" d="M48,128.25c0-14.461,11.2383-26.375,25.5234-27.6406C75.5703,82.293,91.8086,68,111.4688,68   c11.7368,0,22.4458,5.0588,29.5308,13.3442l43.658-43.658C165.896,19.3389,140.2534,8,112,8C54.6523,8,8,54.6523,8,112   c0,28.2534,11.3389,53.896,29.6863,72.6575l29.9512-29.9512C56.2107,151.1667,48,140.6392,48,128.25z"/>
	<path fill="#D0E8FF" d="M145.6289,147.9727c0.0586,0,0.121,0,0.1797,0.0039C159.9727,148.5,172,137.2539,172,123.25   c0-13.6485-11.2617-24.75-25.1016-24.75c-0.8398,0-1.6719,0.0391-2.4883,0.1172c-1.7852,0.1562-3.582-0.9453-4.1719-2.7109   c-0.2029-0.606-0.5071-1.1548-0.7483-1.74L85.6562,148h59.5117C145.3203,147.9805,145.4727,147.9727,145.6289,147.9727z"/>
	<path fill="#FFFFFF" d="M190.1567,43.4995l-44.6614,44.6614c0.4087,0.7815,0.8784,1.5232,1.2312,2.3391c0.0586,0,0.1133,0,0.1719,0   C165.1523,90.5,180,105.1914,180,123.25c0,18.0586-14.8477,32.75-33.1016,32.75c-0.3164,0-0.6328-0.0039-0.9453-0.0117   c-0.1055,0.0078-0.2148,0.0117-0.3203,0.0117H77.6562l-34.1567,34.1567C61.8118,206.2263,85.7786,216,112,216   c57.3477,0,104-46.6523,104-104C216,85.7786,206.2263,61.8118,190.1567,43.4995z"/>
	<path fill="#D0E8FF" d="M111.4688,76c-16.6328,0-30.1641,12.7852-30.1641,28.5c0,1.0938-0.4492,2.1562-1.2383,2.9102   c-0.793,0.7539-1.8594,1.1797-2.9492,1.1172c-0.3555-0.0156-0.7148-0.0273-1.0781-0.0273C64.9883,108.5,56,117.3594,56,128.25   c0,10.3369,8.0671,18.8381,18.4504,19.6433l60.8325-60.8325C129.6968,80.231,121.0422,76,111.4688,76z"/>
	<path fill="#1C71DA" d="M112,0C50.2422,0,0,50.2422,0,112s50.2422,112,112,112s112-50.2422,112-112S173.7578,0,112,0z M8,112   C8,54.6523,54.6523,8,112,8c28.2534,0,53.896,11.3389,72.6575,29.6863l-43.658,43.658C133.9146,73.0588,123.2056,68,111.4688,68   c-19.6602,0-35.8984,14.293-37.9453,32.6094C59.2383,101.875,48,113.7891,48,128.25c0,12.3891,8.2107,22.9167,19.6375,26.4563   l-29.9512,29.9512C19.3389,165.896,8,140.2534,8,112z M139.49,94.1663c0.2412,0.5852,0.5454,1.134,0.7483,1.74   c0.5898,1.7656,2.3867,2.8672,4.1719,2.7109c0.8164-0.0781,1.6484-0.1172,2.4883-0.1172C160.7383,98.5,172,109.6016,172,123.25   c0,14.0039-12.0273,25.25-26.1914,24.7265c-0.0587-0.0039-0.1211-0.0039-0.1797-0.0039c-0.1562,0-0.3086,0.0078-0.4609,0.0273   H85.6562L139.49,94.1663z M74.4504,147.8933C64.0671,147.0881,56,138.5869,56,128.25c0-10.8906,8.9883-19.75,20.0391-19.75   c0.3633,0,0.7227,0.0117,1.0781,0.0273c1.0898,0.0625,2.1562-0.3633,2.9492-1.1172c0.7891-0.7539,1.2383-1.8164,1.2383-2.9102   c0-15.7148,13.5312-28.5,30.1641-28.5c9.5735,0,18.228,4.231,23.8142,11.0608L74.4504,147.8933z M112,216   c-26.2214,0-50.1882-9.7737-68.5005-25.8433L77.6562,156h67.9766c0.1055,0,0.2148-0.0039,0.3203-0.0117   c0.3125,0.0078,0.6289,0.0117,0.9453,0.0117C165.1523,156,180,141.3086,180,123.25c0-18.0586-14.8477-32.75-33.1016-32.75   c-0.0586,0-0.1133,0-0.1719,0c-0.3528-0.8159-0.8225-1.5576-1.2312-2.3391l44.6614-44.6614C206.2263,61.8118,216,85.7786,216,112   C216,169.3477,169.3477,216,112,216z"/>
</g>
<path fill="#FF5D5D" d="M112.3854,190.8317c-1.0234,0-2.0479-0.3906-2.8281-1.1719c-1.5625-1.5615-1.5625-4.0947,0-5.6562  l14.1426-14.1416c1.5625-1.5625,4.0957-1.5625,5.6562,0c1.5625,1.5615,1.5625,4.0947,0,5.6562l-14.1426,14.1416  C114.4323,190.441,113.4088,190.8317,112.3854,190.8317z"/>
<path fill="#FF5D5D" d="M126.528,190.8317c-1.0234,0-2.0469-0.3906-2.8281-1.1719l-14.1426-14.1416  c-1.5625-1.5615-1.5625-4.0947,0-5.6562c1.5605-1.5625,4.0938-1.5625,5.6562,0l14.1426,14.1416  c1.5625,1.5615,1.5625,4.0947,0,5.6562C128.5758,190.441,127.5514,190.8317,126.528,190.8317z"/>
<path fill="#00D40B" d="M146.3854,46.8317c-7.7197,0-14-6.2803-14-14s6.2803-14,14-14s14,6.2803,14,14  S154.1051,46.8317,146.3854,46.8317z M146.3854,26.8317c-3.3086,0-6,2.6914-6,6s2.6914,6,6,6s6-2.6914,6-6  S149.694,26.8317,146.3854,26.8317z"/>
<path fill="#FFC504" d="M43.6989,77.4596c-1.0605,0-2.0781-0.4219-2.8281-1.1719L29.5573,64.9733  c-1.5625-1.5615-1.5625-4.0947,0-5.6562l11.3135-11.3135c1.5605-1.5625,4.0957-1.5625,5.6562,0L57.8405,59.317  c1.5625,1.5615,1.5625,4.0947,0,5.6562L46.527,76.2877C45.777,77.0377,44.7594,77.4596,43.6989,77.4596z M38.0416,62.1451  l5.6572,5.6572l5.6572-5.6572l-5.6572-5.6562L38.0416,62.1451z"/>
</svg>