<?xml version="1.0" encoding="utf-8"?>
<!-- Uploaded to: SVG Repo, www.svgrepo.com, Generator: SVG Repo Mixer Tools -->
<svg xmlns="http://www.w3.org/2000/svg" xmlns:xlink="http://www.w3.org/1999/xlink" version="1.1" id="heatsun"  viewBox="0 0 222.3454 230.4818" enable-background="new 0 0 222.3454 230.4818" xml:space="preserve" width="512" height="512">
<g>
	<path fill="#5CB0FF" d="M154.8563,130.0326c-1.7578-6.3945-1.7578-15.0586,0-21.4453c0.0391-0.2656,0.1055-0.5273,0.1992-0.7891   c1.543-4.2539-0.6133-9.4609-4.707-11.375c-0.2578-0.1211-0.4961-0.2656-0.7148-0.4297   c-5.7539-3.2695-11.8672-9.3828-15.1445-15.1406c-0.1641-0.2188-0.3086-0.457-0.4297-0.7148   c-1.9141-4.0977-7.1211-6.2617-11.375-4.7109c-0.2618,0.0938-0.5273,0.1602-0.7891,0.1992c-6.3945,1.7578-15.0586,1.7578-21.4453,0   c-0.2656-0.0391-0.5274-0.1055-0.7891-0.1992c-4.2578-1.5508-9.4609,0.6133-11.375,4.707   c-0.1211,0.2578-0.2656,0.4961-0.4297,0.7148c-3.2695,5.7539-9.3828,11.8672-15.1406,15.1445   c-0.2188,0.1641-0.457,0.3086-0.7148,0.4297c-4.0977,1.9141-6.2578,7.1211-4.7109,11.375c0.0938,0.2617,0.1602,0.5273,0.1992,0.793   c1.7578,6.3867,1.7578,15.0469,0,21.4375c-0.0391,0.2656-0.1055,0.5312-0.1992,0.793c-1.543,4.2539,0.6133,9.4609,4.707,11.375   c0.2578,0.1211,0.4961,0.2656,0.7148,0.4297c5.7539,3.2695,11.8672,9.3828,15.1445,15.1406   c0.1641,0.2188,0.3086,0.457,0.4297,0.7148c1.9141,4.0977,7.1211,6.25,11.375,4.7109c0.2616-0.0938,0.5273-0.1602,0.7891-0.1992   c6.3945-1.7617,15.0586-1.7539,21.4453,0c0.2656,0.0391,0.5273,0.1055,0.7891,0.1992c4.25,1.5391,9.457-0.6133,11.375-4.707   c0.1211-0.2578,0.2656-0.4961,0.4297-0.7148c3.2695-5.7539,9.3828-11.8672,15.1406-15.1445   c0.2188-0.1641,0.457-0.3086,0.7148-0.4297c4.0977-1.9141,6.2578-7.1211,4.7109-11.375   C154.9618,130.5599,154.8954,130.2943,154.8563,130.0326z"/>
	<path fill="#D0E8FF" d="M111.1727,51.3099c-37.4961,0-68,30.5039-68,68s30.5039,68,68,68s68-30.5039,68-68   S148.6688,51.3099,111.1727,51.3099z M162.9774,129.1967l0.0117,0.0312c0.1406,0.3867,0.2148,0.7812,0.2344,1.168   c1.3711,6.7695-1.6445,14.0508-7.3945,17.8711c-0.293,0.2656-0.6289,0.4922-1.0039,0.6719   c-5.1797,2.4219-11.5977,8.8359-14.0195,14.0117l-0.0039,0.0039v0.0078c-0.1758,0.375-0.4023,0.7109-0.6719,1.0039   c-3.8164,5.75-11.082,8.7617-17.8672,7.3945c-0.3906-0.0195-0.7852-0.0938-1.1719-0.2344l-0.043-0.0156   c-5.3711-1.9297-14.3906-1.9336-19.7617,0.0039l-0.0312,0.0117c-0.3867,0.1406-0.7812,0.2148-1.168,0.2344   c-1.0898,0.2188-2.1953,0.3281-3.2969,0.3281c-5.7305,0-11.3673-2.8984-14.5742-7.7227c-0.2656-0.293-0.4922-0.6289-0.6719-1.0039   c-2.4219-5.1797-8.8359-11.5977-14.0117-14.0195l-0.0039-0.0039c-0.0039,0-0.0039,0-0.0078,0   c-0.375-0.1758-0.7109-0.4023-1.0039-0.668c-5.75-3.8242-8.7617-11.1016-7.3945-17.8711c0.0195-0.3906,0.0938-0.7852,0.2344-1.1719   l0.0117-0.0273c1.9336-5.3711,1.9336-14.4102,0-19.7773l-0.0117-0.0312c-0.1406-0.3867-0.2148-0.7812-0.2344-1.168   c-1.3711-6.7695,1.6445-14.0508,7.3945-17.8711c0.293-0.2656,0.6289-0.4922,1.0039-0.6719   c5.1797-2.4219,11.5977-8.8359,14.0195-14.0117l0.0039-0.0039c0-0.0039,0-0.0039,0-0.0039   c0.1758-0.3789,0.4023-0.7148,0.6719-1.0078c3.8164-5.75,11.082-8.7617,17.8672-7.3945c0.3906,0.0195,0.7852,0.0938,1.1719,0.2344   l0.043,0.0156c5.3711,1.9297,14.3906,1.9336,19.7617-0.0039l0.0312-0.0117c0.3867-0.1406,0.7812-0.2148,1.168-0.2344   c6.7578-1.3555,14.0469,1.6445,17.8711,7.3945c0.2656,0.293,0.4922,0.6289,0.6719,1.0039   c2.4219,5.1797,8.8359,11.5977,14.0117,14.0195l0.0039,0.0039c0.0039,0,0.0039,0,0.0078,0c0.375,0.1758,0.7109,0.4023,1.0039,0.668   c5.75,3.8242,8.7617,11.1016,7.3945,17.8711c-0.0195,0.3906-0.0938,0.7852-0.2344,1.1719l-0.0156,0.043   C161.0399,114.8021,161.0438,123.8295,162.9774,129.1967z"/>
	<path fill="#5CB0FF" d="M198.4774,117.9467l14.8594-40.9531l-39.4648-18.4531c-0.8477-0.3984-1.5312-1.082-1.9297-1.9297   l-18.4531-39.4648L112.536,32.0052c-0.8828,0.3203-1.8438,0.3203-2.7266,0L68.8563,17.1459L50.4032,56.6107   c-0.3984,0.8477-1.082,1.5312-1.9297,1.9297L9.0086,76.9935l14.8594,40.9531c0.3164,0.8789,0.3164,1.8477,0,2.7266L9.0086,161.6263   l39.4648,18.4531c0.8477,0.3984,1.5312,1.082,1.9297,1.9297l18.4531,39.4648l40.9531-14.8594   c0.4414-0.1602,0.9023-0.2383,1.3633-0.2383s0.9219,0.0781,1.3633,0.2383l40.9531,14.8594l18.4531-39.4648   c0.3984-0.8477,1.082-1.5312,1.9297-1.9297l39.4648-18.4531l-14.8594-40.9531C198.161,119.7943,198.161,118.8256,198.4774,117.9467   z M111.1727,195.3099c-41.9062,0-76-34.0938-76-76s34.0938-76,76-76s76,34.0938,76,76S153.079,195.3099,111.1727,195.3099z"/>
	<path fill="#1C71DA" d="M111.1727,43.3099c-41.9062,0-76,34.0938-76,76s34.0938,76,76,76s76-34.0938,76-76   S153.079,43.3099,111.1727,43.3099z M111.1727,187.3099c-37.4961,0-68-30.5039-68-68s30.5039-68,68-68s68,30.5039,68,68   S148.6688,187.3099,111.1727,187.3099z"/>
	<path fill="#1C71DA" d="M162.9891,109.392c0.1406-0.3867,0.2148-0.7812,0.2344-1.1719c1.3672-6.7695-1.6445-14.0469-7.3945-17.8711   c-0.293-0.2656-0.6289-0.4922-1.0039-0.668c-0.0039,0-0.0039,0-0.0078,0l-0.0039-0.0039   c-5.1758-2.4219-11.5898-8.8398-14.0117-14.0195c-0.1797-0.375-0.4062-0.7109-0.6719-1.0039   c-3.8242-5.75-11.1133-8.75-17.8711-7.3945c-0.3867,0.0195-0.7812,0.0938-1.168,0.2344l-0.0312,0.0117   c-5.3711,1.9375-14.3906,1.9336-19.7617,0.0039l-0.043-0.0156c-0.3867-0.1406-0.7812-0.2148-1.1719-0.2344   c-6.7852-1.3672-14.0508,1.6445-17.8672,7.3945c-0.2695,0.293-0.4961,0.6289-0.6719,1.0039c0,0,0,0.0039,0,0.0078l-0.0039,0.0039   c-2.4219,5.1758-8.8398,11.5898-14.0195,14.0117c-0.375,0.1797-0.7109,0.4062-1.0039,0.6719   c-5.75,3.8203-8.7656,11.1016-7.3945,17.8711c0.0195,0.3867,0.0938,0.7812,0.2344,1.168l0.0117,0.0312   c1.9336,5.3672,1.9336,14.4062,0,19.7773l-0.0117,0.0273c-0.1406,0.3867-0.2148,0.7812-0.2344,1.1719   c-1.3672,6.7695,1.6445,14.0469,7.3945,17.8711c0.293,0.2656,0.6289,0.4922,1.0039,0.668c0.0039,0,0.0039,0,0.0078,0l0.0039,0.0039   c5.1758,2.4219,11.5898,8.8398,14.0117,14.0195c0.1797,0.375,0.4062,0.7109,0.6719,1.0039   c3.2069,4.8242,8.8438,7.7227,14.5742,7.7227c1.1016,0,2.207-0.1094,3.2969-0.3281c0.3867-0.0195,0.7812-0.0938,1.168-0.2344   l0.0312-0.0117c5.3711-1.9375,14.3906-1.9336,19.7617-0.0039l0.043,0.0156c0.3867,0.1406,0.7812,0.2148,1.1719,0.2344   c6.7852,1.3672,14.0508-1.6445,17.8672-7.3945c0.2695-0.293,0.4961-0.6289,0.6719-1.0039v-0.0078l0.0039-0.0039   c2.4219-5.1758,8.8398-11.5898,14.0195-14.0117c0.375-0.1797,0.7109-0.4062,1.0039-0.6719   c5.75-3.8203,8.7656-11.1016,7.3945-17.8711c-0.0195-0.3867-0.0938-0.7812-0.2344-1.168l-0.0117-0.0312   c-1.9336-5.3672-1.9375-14.3945-0.0039-19.7617L162.9891,109.392z M150.3446,142.1967c-0.2578,0.1211-0.4961,0.2656-0.7148,0.4297   c-5.7578,3.2773-11.8711,9.3906-15.1406,15.1445c-0.1641,0.2188-0.3086,0.457-0.4297,0.7148   c-1.918,4.0938-7.125,6.2461-11.375,4.707c-0.2618-0.0938-0.5234-0.1602-0.7891-0.1992c-6.3867-1.7539-15.0508-1.7617-21.4453,0   c-0.2617,0.0391-0.5274,0.1055-0.7891,0.1992c-4.2539,1.5391-9.4609-0.6133-11.375-4.7109   c-0.1211-0.2578-0.2656-0.4961-0.4297-0.7148c-3.2773-5.7578-9.3906-11.8711-15.1445-15.1406   c-0.2188-0.1641-0.457-0.3086-0.7148-0.4297c-4.0938-1.9141-6.25-7.1211-4.707-11.375c0.0938-0.2617,0.1602-0.5273,0.1992-0.793   c1.7578-6.3906,1.7578-15.0508,0-21.4375c-0.0391-0.2656-0.1055-0.5312-0.1992-0.793c-1.5469-4.2539,0.6133-9.4609,4.7109-11.375   c0.2578-0.1211,0.4961-0.2656,0.7148-0.4297c5.7578-3.2773,11.8711-9.3906,15.1406-15.1445   c0.1641-0.2188,0.3086-0.457,0.4297-0.7148c1.9141-4.0938,7.1172-6.2578,11.375-4.707c0.2616,0.0938,0.5234,0.1602,0.7891,0.1992   c6.3867,1.7578,15.0508,1.7578,21.4453,0c0.2617-0.0391,0.5273-0.1055,0.7891-0.1992c4.2539-1.5508,9.4609,0.6133,11.375,4.7109   c0.1211,0.2578,0.2656,0.4961,0.4297,0.7148c3.2773,5.7578,9.3906,11.8711,15.1445,15.1406   c0.2188,0.1641,0.457,0.3086,0.7148,0.4297c4.0938,1.9141,6.25,7.1211,4.707,11.375c-0.0938,0.2617-0.1602,0.5234-0.1992,0.7891   c-1.7578,6.3867-1.7578,15.0508,0,21.4453c0.0391,0.2617,0.1055,0.5273,0.1992,0.7891   C156.6024,135.0756,154.4422,140.2826,150.3446,142.1967z"/>
	<path fill="#1C71DA" d="M206.493,119.3099l15.6133-43.0273c0.7031-1.9453-0.1914-4.1094-2.0664-4.9883l-41.4648-19.3867   l-19.3867-41.4648c-0.8789-1.8711-3.0391-2.7539-4.9883-2.0664l-43.0273,15.6133L68.1454,8.3763   c-1.9492-0.6914-4.1094,0.1953-4.9883,2.0664L43.7704,51.9076L2.3055,71.2943c-1.875,0.8789-2.7695,3.043-2.0664,4.9883   l15.6133,43.0273L0.2391,162.3373c-0.7031,1.9453,0.1914,4.1094,2.0664,4.9883l41.4648,19.3867l19.3867,41.4648   c0.8789,1.875,3.043,2.7656,4.9883,2.0664l43.0273-15.6133l43.0273,15.6133c0.4492,0.1602,0.9102,0.2383,1.3633,0.2383   c1.5117,0,2.9492-0.8633,3.625-2.3047l19.3867-41.4648l41.4648-19.3867c1.875-0.8789,2.7695-3.043,2.0664-4.9883L206.493,119.3099z    M173.8719,180.0795c-0.8477,0.3984-1.5312,1.082-1.9297,1.9297l-18.4531,39.4648l-40.9531-14.8594   c-0.4414-0.1602-0.9023-0.2383-1.3633-0.2383s-0.9219,0.0781-1.3633,0.2383L68.8563,221.474l-18.4531-39.4648   c-0.3984-0.8477-1.082-1.5312-1.9297-1.9297L9.0086,161.6263l14.8594-40.9531c0.3164-0.8789,0.3164-1.8477,0-2.7266L9.0086,76.9935   l39.4648-18.4531c0.8477-0.3984,1.5312-1.082,1.9297-1.9297l18.4531-39.4648l40.9531,14.8594c0.8828,0.3203,1.8438,0.3203,2.7266,0   l40.9531-14.8594l18.4531,39.4648c0.3984,0.8477,1.082,1.5312,1.9297,1.9297l39.4648,18.4531l-14.8594,40.9531   c-0.3164,0.8789-0.3164,1.8477,0,2.7266l14.8594,40.9531L173.8719,180.0795z"/>
</g>
<path fill="#FF5D5D" d="M183.5581,22.1416c-1.0234,0-2.0479-0.3906-2.8281-1.1719c-1.5625-1.5615-1.5625-4.0947,0-5.6562  l14.1426-14.1416c1.5625-1.5625,4.0957-1.5625,5.6562,0c1.5625,1.5615,1.5625,4.0947,0,5.6562l-14.1426,14.1416  C185.605,21.751,184.5815,22.1416,183.5581,22.1416z"/>
<path fill="#FF5D5D" d="M197.7007,22.1416c-1.0234,0-2.0469-0.3906-2.8281-1.1719L180.73,6.8281  c-1.5625-1.5615-1.5625-4.0947,0-5.6562c1.5605-1.5625,4.0938-1.5625,5.6562,0l14.1426,14.1416  c1.5625,1.5615,1.5625,4.0947,0,5.6562C199.7485,21.751,198.7241,22.1416,197.7007,22.1416z"/>
<path fill="#00D40B" d="M193.5581,210.1416c-7.7197,0-14-6.2803-14-14s6.2803-14,14-14s14,6.2803,14,14  S201.2778,210.1416,193.5581,210.1416z M193.5581,190.1416c-3.3086,0-6,2.6914-6,6s2.6914,6,6,6s6-2.6914,6-6  S196.8667,190.1416,193.5581,190.1416z"/>
<path fill="#FFC504" d="M106.8716,132.7695c-1.0234,0-2.0479-0.3906-2.8281-1.1719L92.73,120.2842  c-1.5625-1.5615-1.5625-4.0947,0-5.6562l11.3135-11.3145c0.75-0.75,1.7676-1.1719,2.8281-1.1719s2.0781,0.4219,2.8281,1.1719  l11.3135,11.3145c1.5625,1.5615,1.5625,4.0947,0,5.6562l-11.3135,11.3135C108.9194,132.3789,107.895,132.7695,106.8716,132.7695z   M101.2144,117.4561l5.6572,5.6562l5.6572-5.6562l-5.6572-5.6572L101.2144,117.4561z"/>
</svg>