<?xml version="1.0" encoding="utf-8"?>
<!-- Uploaded to: SVG Repo, www.svgrepo.com, Generator: SVG Repo Mixer Tools -->
<svg xmlns="http://www.w3.org/2000/svg" xmlns:xlink="http://www.w3.org/1999/xlink" version="1.1" id="cloudsnowflake"  viewBox="0 0 216.3854 200" enable-background="new 0 0 216.3854 200" xml:space="preserve" width="512" height="512">
<g>
	<path fill="#5CB0FF" d="M162,60c-0.6055,0-1.2031,0.0156-1.8008,0.0449c-1.0781,0.0723-2.1602-0.3418-2.957-1.0957   C156.4492,58.1934,156,57.1465,156,56.0508C156,29.5332,133.5703,8,106,8C84.1016,8,64.9414,21.4531,58.3281,41.4746   c-0.5859,1.7793-2.3477,2.9102-4.1875,2.7266C52.7773,44.0684,51.3945,44,50,44C26.8398,44,8,62.8418,8,86s18.8398,42,42,42   c0.6172,0,1.2266-0.0117,1.8359-0.0391c0.2617-0.0039,0.5156,0.002,0.7617,0.0391h110.7578   c0.1406-0.0234,0.2812-0.0391,0.4219-0.0449C181.8477,127.0234,196,112.1094,196,94C196,75.252,180.7461,60,162,60z"/>
	<path fill="#1C71DA" d="M163.8555,52.041C161.7461,23.002,136.6016,0,106,0C81.7227,0,60.3281,14.3555,51.793,36.0312   C51.1992,36.0098,50.6016,36,50,36C22.4297,36,0,58.4297,0,86s22.4297,50,50,50c0.5234,0,1.0469-0.0078,1.5664-0.0234   C51.7109,135.9922,51.8555,136,52,136h112c0.2891,0,0.5742-0.0332,0.8516-0.0957C186.8594,134.4297,204,116.1484,204,94   C204,71.4629,186.1562,53.0156,163.8555,52.041z M163.7773,127.9551c-0.1406,0.0059-0.2812,0.0215-0.4219,0.0449H52.5977   c-0.2461-0.0371-0.5-0.043-0.7617-0.0391C51.2266,127.9883,50.6172,128,50,128c-23.1602,0-42-18.8418-42-42s18.8398-42,42-42   c1.3945,0,2.7773,0.0684,4.1406,0.2012c1.8398,0.1836,3.6016-0.9473,4.1875-2.7266C64.9414,21.4531,84.1016,8,106,8   c27.5703,0,50,21.5332,50,48.0508c0,1.0957,0.4492,2.1426,1.2422,2.8984c0.7969,0.7539,1.8789,1.168,2.957,1.0957   C160.7969,60.0156,161.3945,60,162,60c18.7461,0,34,15.252,34,34C196,112.1094,181.8477,127.0234,163.7773,127.9551z"/>
	<path fill="#1C71DA" d="M98.8281,161.1719c-1.5625-1.5625-4.0938-1.5625-5.6562,0L86.3438,168h-3.0808   c-1.2083-3.3887-3.8743-6.0547-7.2629-7.2629v-3.0808l6.8281-6.8281c1.5625-1.5625,1.5625-4.0938,0-5.6562s-4.0938-1.5625-5.6562,0   L72,150.3438l-5.1719-5.1719c-1.5625-1.5625-4.0938-1.5625-5.6562,0s-1.5625,4.0938,0,5.6562L68,157.6562v3.0808   c-3.3887,1.2083-6.0547,3.8743-7.2629,7.2629h-3.0808l-6.8281-6.8281c-1.5625-1.5625-4.0938-1.5625-5.6562,0   s-1.5625,4.0938,0,5.6562L50.3438,172l-5.1719,5.1719c-1.5625,1.5625-1.5625,4.0938,0,5.6562C45.9531,183.6094,46.9766,184,48,184   s2.0469-0.3906,2.8281-1.1719L57.6562,176h3.0811c1.2083,3.3887,3.874,6.0544,7.2627,7.2627v3.0811l-6.8281,6.8281   c-1.5625,1.5625-1.5625,4.0938,0,5.6562s4.0938,1.5625,5.6562,0L72,193.6562l5.1719,5.1719C77.9531,199.6094,78.9766,200,80,200   s2.0469-0.3906,2.8281-1.1719c1.5625-1.5625,1.5625-4.0938,0-5.6562L76,186.3438v-3.0808   c3.3887-1.2083,6.0547-3.8743,7.2629-7.2629h3.0808l6.8281,6.8281C93.9531,183.6094,94.9766,184,96,184   s2.0469-0.3906,2.8281-1.1719c1.5625-1.5625,1.5625-4.0938,0-5.6562L93.6562,172l5.1719-5.1719   C100.3906,165.2656,100.3906,162.7344,98.8281,161.1719z M72,176c-2.207,0-4-1.7949-4-4s1.793-4,4-4s4,1.7949,4,4   S74.207,176,72,176z"/>
	<path fill="#1C71DA" d="M170.8281,161.1719c-1.5625-1.5625-4.0938-1.5625-5.6562,0L158.3438,168h-3.0808   c-1.2083-3.3887-3.8743-6.0547-7.2629-7.2629v-3.0808l6.8281-6.8281c1.5625-1.5625,1.5625-4.0938,0-5.6562s-4.0938-1.5625-5.6562,0   L144,150.3438l-5.1719-5.1719c-1.5625-1.5625-4.0938-1.5625-5.6562,0s-1.5625,4.0938,0,5.6562L140,157.6562v3.0808   c-3.3887,1.2083-6.0547,3.8743-7.2629,7.2629h-3.0808l-6.8281-6.8281c-1.5625-1.5625-4.0938-1.5625-5.6562,0   s-1.5625,4.0938,0,5.6562L122.3438,172l-5.1719,5.1719c-1.5625,1.5625-1.5625,4.0938,0,5.6562   C117.9531,183.6094,118.9766,184,120,184s2.0469-0.3906,2.8281-1.1719L129.6562,176h3.0811   c1.2083,3.3887,3.874,6.0544,7.2627,7.2627v3.0811l-6.8281,6.8281c-1.5625,1.5625-1.5625,4.0938,0,5.6562s4.0938,1.5625,5.6562,0   L144,193.6562l5.1719,5.1719C149.9531,199.6094,150.9766,200,152,200s2.0469-0.3906,2.8281-1.1719   c1.5625-1.5625,1.5625-4.0938,0-5.6562L148,186.3438v-3.0808c3.3887-1.2083,6.0547-3.8743,7.2629-7.2629h3.0808l6.8281,6.8281   C165.9531,183.6094,166.9766,184,168,184s2.0469-0.3906,2.8281-1.1719c1.5625-1.5625,1.5625-4.0938,0-5.6562L165.6562,172   l5.1719-5.1719C172.3906,165.2656,172.3906,162.7344,170.8281,161.1719z M144,176c-2.207,0-4-1.7949-4-4s1.793-4,4-4s4,1.7949,4,4   S146.207,176,144,176z"/>
</g>
<path fill="#FF5D5D" d="M176.3854,34.8322c-1.0234,0-2.0469-0.3906-2.8281-1.1714c-1.5625-1.5625-1.5625-4.0952,0-5.6572  l14.1426-14.1421c1.5605-1.5615,4.0938-1.5615,5.6562,0c1.5625,1.5625,1.5625,4.0952,0,5.6572l-14.1426,14.1421  C178.4332,34.4415,177.4088,34.8322,176.3854,34.8322z"/>
<path fill="#FF5D5D" d="M190.528,34.8322c-1.0234,0-2.0469-0.3906-2.8281-1.1714l-14.1426-14.1421  c-1.5625-1.562-1.5625-4.0947,0-5.6572c1.5605-1.5615,4.0938-1.5615,5.6562,0l14.1426,14.1421c1.5625,1.562,1.5625,4.0947,0,5.6572  C192.5758,34.4415,191.5514,34.8322,190.528,34.8322z"/>
<path fill="#00D40B" d="M202.3854,162.8322c-7.7197,0-14-6.2803-14-14s6.2803-14,14-14s14,6.2803,14,14  S210.1051,162.8322,202.3854,162.8322z M202.3854,142.8322c-3.3086,0-6,2.6914-6,6s2.6914,6,6,6s6-2.6914,6-6  S205.694,142.8322,202.3854,142.8322z"/>
<path fill="#FFC504" d="M43.6989,97.4596c-1.0605,0-2.0781-0.4214-2.8281-1.1719l-11.3135-11.314  c-1.5625-1.562-1.5625-4.0942,0-5.6567l11.3135-11.3135c1.5605-1.5615,4.0957-1.5615,5.6562,0L57.8405,79.317  c1.5625,1.5625,1.5625,4.0947,0,5.6567L46.527,96.2877C45.777,97.0382,44.7594,97.4596,43.6989,97.4596z M38.0426,82.1456  l5.6562,5.6572l5.6562-5.6572l-5.6562-5.6567L38.0426,82.1456z"/>
</svg>